<?xml version="1.0" encoding="utf-8"?>
<!DOCTYPE svg PUBLIC "-//W3C//DTD SVG 1.1//EN" "http://www.w3.org/Graphics/SVG/1.1/DTD/svg11.dtd"><svg xmlns="http://www.w3.org/2000/svg" xmlns:xlink="http://www.w3.org/1999/xlink">
    <defs>
        <svg viewBox="-25 -25 450 450" id="icon-arrow-down">
            <path fill-rule="evenodd" clip-rule="evenodd" d="M201.89 249.734c2.118-3.026 3.493-5.746 5.538-7.798 39.08-39.2 78.14-78.42 117.535-117.303 3.604-3.56 9.49-6.784 14.197-6.627 3.83.126 9.34 4.917 10.687 8.818 1.32 3.828-.244 10.404-3.04 13.576-9.476 10.765-20.056 20.56-30.215 30.72-34.625 34.622-69.24 69.25-103.877 103.86-9.31 9.303-15.784 9.383-25.087.092-43.688-43.622-87.352-87.27-130.965-130.965-10.577-10.598-8.968-23.46 3.655-25.727 4.47-.802 10.942 1.968 14.542 5.253 12.17 11.11 23.436 23.207 35.095 34.88 28.774 28.805 57.57 57.584 86.374 86.36 1.105 1.106 2.352 2.068 5.56 4.86z"/>
        </svg>
        <svg viewBox="-25 -25 450 450" id="icon-back">
            <path fill-rule="evenodd" clip-rule="evenodd" d="M150.633 201.878c3.003 2.1 5.703 3.466 7.74 5.495 38.91 38.79 77.84 77.563 116.436 116.665 3.532 3.578 6.732 9.42 6.577 14.093-.125 3.802-4.88 9.272-8.753 10.608-3.8 1.31-10.327-.24-13.477-3.018-10.684-9.405-20.406-19.907-30.49-29.99-34.368-34.37-68.74-68.73-103.094-103.11-9.234-9.24-9.314-15.667-.092-24.902 43.3-43.364 86.626-86.705 130-129.995 10.518-10.5 23.285-8.902 25.535 3.627.796 4.438-1.954 10.862-5.214 14.435-11.026 12.08-23.033 23.262-34.62 34.834-28.593 28.56-57.16 57.145-85.725 85.734-1.095 1.1-2.05 2.338-4.822 5.524z"/>
        </svg>
        <svg viewBox="-25 -25 450 450" id="icon-cart">
            <g fill-rule="evenodd" clip-rule="evenodd">
                <path d="M346.333 188.424c-.964-8.433-6.638-12.974-15.782-12.978-43.58-.026-87.165-.012-130.75-.012-43.175 0-86.353.222-129.525-.152-11.11-.095-19.8 8.288-15.615 21.447 12.85 40.414 25.266 80.97 37.913 121.452 4.133 13.23 16.118 21.96 29.975 21.966 51.593.02 103.187.018 154.78 0 13.864-.004 25.91-8.7 30.033-21.893 12.7-40.61 25.328-81.24 37.896-121.892.78-2.53 1.37-5.36 1.077-7.94zm-196.55 94.597c-.033 6.873-2.46 9.31-9.296 9.41-4.887.07-9.778.105-14.662-.017-5.948-.148-8.796-2.914-8.815-8.79-.07-21.177-.076-42.355.002-63.534.022-6.14 2.793-8.82 9.032-8.988 5.02-.133 10.048-.137 15.067.002 6.123.167 8.607 2.667 8.66 8.79.09 10.587.025 21.178.025 31.767.002 10.455.04 20.91-.01 31.36zm66.458.555c-.012 5.94-2.673 8.625-8.66 8.69-5.296.06-10.595.094-15.888-.014-5.197-.103-7.958-2.928-7.965-8.142-.034-21.593-.034-43.186 0-64.776.01-5.025 2.68-7.884 7.637-8.02 5.698-.157 11.407-.16 17.106-.012 5.15.132 7.75 3.003 7.767 8.313.035 10.727.01 21.455.01 32.183 0 10.594.016 21.185-.006 31.78zm66.707-.058c-.022 5.976-2.808 8.74-8.707 8.895-5.156.134-10.32.136-15.476-.002-6.05-.16-8.53-2.714-8.577-8.875-.082-10.587-.023-21.177-.023-31.766-.002-10.318-.03-20.637.008-30.954.025-7.293 2.43-9.667 9.79-9.738 4.752-.042 9.507-.118 14.254.03 5.934.185 8.704 2.91 8.73 8.874.084 21.177.08 42.356 0 63.535zM190.25 162.614c6.513.08 13.028.083 19.54 0 5.476-.072 8.084-2.788 8.09-8.402.023-28.63.025-57.264-.003-85.895-.006-5.572-2.935-8.415-8.57-8.454-5.97-.042-11.94-.02-17.912-.007-6.668.013-9.32 2.664-9.325 9.345-.01 13.98-.003 27.955-.003 41.932 0 14.384-.026 28.767.013 43.15.017 5.57 2.656 8.267 8.17 8.332z"/>
            </g>
        </svg>
        <svg viewBox="-25 -25 450 450" id="icon-delete">
            <path fill-rule="evenodd" clip-rule="evenodd" d="M199.954 340.844c-78.022-.714-141.15-62.82-140.718-141.96.42-77.164 62.6-140.127 141.6-139.726 77.6.394 139.53 62.452 139.93 139.815.408 79.206-62.712 141.103-140.812 141.87zm-.175-157.514c-1.35-1.583-2.21-2.746-3.22-3.76-11.33-11.36-22.705-22.675-34.01-34.058-3.82-3.846-8.21-5.548-13.45-3.718-8.526 2.978-10.666 13.25-4.034 20.015 11.417 11.64 23.008 23.11 34.58 34.6 1.088 1.08 2.543 1.794 3.978 2.78-1.815 1.91-2.765 2.952-3.76 3.947-11.523 11.535-23.11 23.01-34.56 34.614-6.842 6.934-4.862 17.278 3.833 20.294 5.236 1.816 9.625.088 13.442-3.758 11.394-11.478 22.854-22.89 34.298-34.32.988-.987 2.04-1.914 3.163-2.963 1.123 1.066 2.073 1.935 2.983 2.843 11.534 11.524 23.083 23.034 34.575 34.6 3.61 3.63 7.803 5.23 12.764 3.78 8.957-2.617 11.353-13.344 4.45-20.36-11.523-11.72-23.19-23.296-34.872-34.857-.985-.976-2.528-1.388-3.813-2.06 1.93-2.615 3.143-3.417 4.152-4.423 11.367-11.322 22.73-22.65 34.037-34.03 5.686-5.723 6.035-13.045 1.007-18.008-5.018-4.954-12.235-4.502-18.007 1.217-7.228 7.16-14.402 14.375-21.588 21.576-5.146 5.156-10.27 10.33-15.95 16.047z"/>
        </svg>
        <svg viewBox="-25 -25 450 450" id="icon-edit">
            <g fill-rule="evenodd" clip-rule="evenodd">
                <path d="M288.858 185.344c-2.56 2.487-3.654 4.943-3.64 8.574.145 35.14.087 70.28.087 105.42v4.465H107.108v-178.09h4.465c35.67 0 71.34.04 107.008-.102 1.95-.007 4.363-1.02 5.765-2.384 10.23-9.945 20.258-20.095 30.337-30.195.776-.776 1.445-1.66 2.397-2.766H71.497V339.47h249.355V153.676c-1.484 1.388-2.446 2.238-3.353 3.143-9.532 9.522-18.976 19.138-28.642 28.524z"/>
                <path d="M284.787 88.655c-41.082 41.08-82.168 82.155-123.197 123.288-1.127 1.13-1.963 2.79-2.376 4.35-2.694 10.16-5.257 20.354-7.812 30.548-1.38 5.512-2.66 11.047-4.076 16.94 15.908-3.99 31.21-7.75 46.447-11.75 2.265-.595 4.617-1.943 6.276-3.598 40.22-40.074 80.35-80.237 120.494-120.388.893-.893 1.743-1.83 2.442-2.567-12.577-12.595-24.98-25.01-37.405-37.455-.184.147-.52.36-.793.633zM348.558 62.303c-10.028-9.967-26.18-10.43-36.458-.91-4.547 4.212-8.857 8.68-13.108 12.867l37.713 37.695c4.182-4.202 8.805-8.53 13.06-13.19 9.47-10.376 8.85-26.465-1.207-36.462z"/>
            </g>
        </svg>
        <svg viewBox="-25 -25 450 450" id="icon-heart">
            <path d="M337.677 161.06c-1.862-48.53-40.51-95.455-94.383-86.29-16.476 2.8-30.57 11.672-43.37 24.565-18.04-18.243-38.07-26.257-61.42-25.56-38.414 1.146-74.102 41.243-76.128 84.67-1.5 32.156 8.828 58.364 27.18 81.405 29.78 37.382 66.832 63.227 106.658 84.412 2.453 1.304 6.508.86 9.074-.53 33.848-18.325 65.795-40.124 93.04-69.615 23.333-25.262 40.86-53.6 39.35-93.057zm-33.092 76.788c-27.856 34.967-62.513 59.143-99.767 78.96-1.254.666-2.957.83-4.635.642-1.68.188-3.38.024-4.635-.643-37.254-19.816-71.91-43.992-99.766-78.96-17.168-21.55-26.83-46.063-25.424-76.142 1.895-40.62 35.275-78.128 71.207-79.2 21.842-.65 41.558 7.848 58.435 24.912 16.878-17.064 36.96-25.563 58.8-24.912 35.934 1.072 69.313 38.58 71.207 79.2 1.406 30.078-8.256 54.592-25.422 76.143z"/>
        </svg>
        <svg viewBox="-25 -25 450 450" id="icon-heart-alt">
            <path fill-rule="evenodd" clip-rule="evenodd" d="M199.928 103.396c-17.43-17.625-36.782-25.367-59.34-24.693C103.477 79.81 69 118.55 67.04 160.505c-1.45 31.066 8.53 56.386 26.26 78.646 28.77 36.116 64.566 61.085 103.043 81.555 2.37 1.26 6.29.83 8.768-.513 32.7-17.704 63.565-38.766 89.886-67.258 22.544-24.406 39.48-51.785 38.018-89.903-1.8-46.884-39.136-92.22-91.185-83.367-15.917 2.706-29.534 11.276-41.9 23.733z"/>
        </svg>
        <svg viewBox="30 30 300 300" id="icon-heart-circle">
            <g fill="#89ba35" stroke="none">
            <path d="M87 284 c-4 -4 -7 -60 -7 -125 0 -133 -5 -126 87 -127 64 -2 65 0 61 148 l-3 105 -65 3 c-36 2 -69 0 -73 -4z m83 -19 c0 -8 -7 -15 -15 -15 -16 0 -20 12 -8 23 11 12 23 8 23 -8z m30 -115 l0 -90 -45 0 -45 0 0 90 0 90 45 0 45 0 0 -90z"/>
        </g>
        </svg>
        <svg viewBox="-25 -25 450 450" id="icon-home">
            <path fill-rule="evenodd" clip-rule="evenodd" d="M245.45 256.252h-90.364v89.445H65.402V211.345c-9.032-.69-15.83-4.303-19.978-11.932-3.985-7.328-3.47-9.816 2.785-15.183 50.056-42.934 100.118-85.86 150.183-128.785.375-.32.807-.574 1.718-1.216 22.077 18.893 44.24 37.86 67.487 57.757v-35.07h44.728v5.406c0 21.33-.093 42.663.136 63.992.025 2.244 1.375 5.106 3.065 6.6 12.854 11.357 25.898 22.5 39.003 33.57 2.533 2.14 3.084 4.17 2.205 7.353-2.994 10.832-10.35 16.166-21.79 17.53v134.403h-89.49c-.002-29.735-.002-59.327-.002-89.518z"/>
        </svg>
        <svg viewBox="-25 -25 450 450" id="icon-list">
            <g fill-rule="evenodd" clip-rule="evenodd">
                <path d="M54.162 84.545h291.676v24.307H54.162V84.545zM54.162 187.847h291.676v24.307H54.162v-24.307zM54.162 291.148h291.676v24.307H54.162v-24.307z"/>
            </g>
        </svg>
        <svg viewBox="-25 -25 450 450" id="icon-magnify">
            <path fill-rule="evenodd" clip-rule="evenodd" d="M223.12 250.32c-27.034 17.354-55.537 22.7-86.004 14.91-25.322-6.472-45.452-20.88-60.22-42.407-29.06-42.364-23.155-100.64 16.173-136.99 35.896-33.176 94.478-35.908 133.658-6.125 41.47 31.523 56.614 92.092 23.636 143.36 1.063.64 2.65 1.22 3.734 2.3 27.736 27.65 55.42 55.352 83.11 83.045 5.368 5.368 5.514 9.392.31 14.796-4.543 4.715-9.18 9.344-13.893 13.89-5.427 5.238-9.447 5.117-14.798-.233-27.693-27.69-55.39-55.378-83.06-83.092-1.008-1.012-1.76-2.283-2.646-3.455zM163.83 86.935c-41.617-.313-76.577 33.988-77.038 75.445-.474 42.635 33.07 76.554 73.976 78.042 43.017 1.565 79.474-32.688 79.557-76.766.08-41.626-33.465-76.44-76.496-76.72z"/>
        </svg>
        <svg viewBox="-25 -25 450 450" id="icon-messages">
            <g fill-rule="evenodd" clip-rule="evenodd">
                <path d="M372.876 251.266c-3.375-19.094-6.742-38.188-10.143-57.278-4.644-26.09-9.306-52.176-13.975-78.26-1.28-7.147-8.917-15.19-20.147-13.194-23.987 4.26-47.94 8.726-71.917 13.06-51.963 9.397-103.934 18.757-155.897 28.148-16.777 3.032-21.505 9.813-18.603 26.374 4.052 23.123 7.975 46.27 12.083 69.383 3.733 21.003 7.45 42.013 11.557 62.944 1.937 9.88 10.437 15.592 20.124 13.986 12.285-2.032 24.513-4.422 36.763-6.67 34.442-6.322 68.882-12.654 103.323-18.975 31.143-5.715 62.3-11.357 93.426-17.17 8.56-1.6 13.982-8.49 14.038-18.414-.07-.432-.325-2.19-.632-3.934zm-49.4-115.43c-7.523 6.866-15.03 13.755-22.55 20.626-21.646 19.772-43.254 39.58-64.985 59.252-2.662 2.408-5.998 4.072-8.685 5.855-2.857-1.007-4.72-1.58-6.52-2.31-36.318-14.732-72.628-29.48-108.938-44.23-5.34-2.17-7.372-5.32-5.443-9.178 2.217-4.435 5.873-3.625 9.674-2.106 34.894 13.94 69.83 27.775 104.684 41.812 3.757 1.513 6.143 1.397 9.377-1.536 27.67-25.098 55.57-49.94 83.408-74.857.8-.716 1.614-1.416 2.46-2.075 3.11-2.42 6.323-2.77 9.012.387 2.69 3.16 1.162 5.935-1.493 8.358z"/>
                <path d="M72.868 161.778c-2.16-12.67 4.976-21.78 17.975-23.595 6.246-.873 12.436-2.154 19.27-3.36-4.856-6.145-9.208-11.764-13.688-17.277-2.433-2.993-4.428-6.228-.685-9.185 3.663-2.894 6.953-1.156 9.608 2.26 4.602 5.923 9.507 11.62 13.897 17.692 2.502 3.462 5.38 3.98 9.208 3.257 21.458-4.05 42.936-7.987 65.643-12.19-2.03-.915-2.784-1.32-3.583-1.605-30.632-10.973-61.258-21.965-91.91-32.88-11.87-4.23-20.44.018-24.785 12.05-5.614 15.55-11.276 31.084-16.866 46.645-9.857 27.44-19.793 54.853-29.44 82.368-2.903 8.285.542 16.943 8.464 20.1 17.794 7.093 35.86 13.5 54.31 20.366-.225-2.726-.238-4.832-.59-6.88-5.592-32.59-11.268-65.17-16.828-97.766z"/>
            </g>
        </svg>
        <svg viewBox="-25 -25 450 450" id="icon-profile">
            <g fill-rule="evenodd" clip-rule="evenodd">
                <path d="M347.29 319.11c-6.343-44.244-45.51-78.18-90.12-78.428-38.243-.216-76.49-.083-114.734-.02-10.258.016-20.344 1.692-29.84 5.514-37.85 15.23-58.545 43.274-61.565 84.014-.61 8.255-.087 16.594-.087 24.86h298.323c-.618-12.232-.298-24.23-1.977-35.94zM199.58 212.24c44.958.396 83.613-35.868 83.896-83.45.27-45.93-37.72-84.31-83.637-83.836-48.13.495-83.48 38.323-83.642 83.367-.17 47.164 37.788 83.877 83.383 83.92z"/>
            </g>
        </svg>
        <svg viewBox="-32 -32 576 576" id="icon-rate">
            <g fill-rule="evenodd" clip-rule="evenodd">
                <path d="M253.4 288.3h41.5v-40.8h5.9c15.2 0 30.3-.4 45.5.2 7.7.3 13.7-1.3 18.8-7.3 5.7-6.8 12.1-13 18.2-19.5-8.9-1.2-18.1-2.5-27.3-3.8-19.7-2.7-39.5-5.4-59.2-8.2-1.4-.2-3-1.9-3.7-3.3C285 189 277 172.3 269 155.8c-4.6-9.5-9.3-19-14.2-29.1-1.4 2.8-2.6 4.9-3.6 7.1-11.5 23.7-23 47.5-34.6 71.2-.8 1.7-2.8 3.6-4.4 3.9-15.1 2.3-30.3 4.2-45.4 6.3-13.6 1.9-27.3 3.9-41.9 5.9 1.3 1.4 1.9 2.2 2.6 2.8 19.8 19 39.6 38.1 59.3 57.2 1.6 1.5 3.2 4.3 2.9 6.1-3.5 20.9-7.4 41.8-11.2 62.7-1.4 7.6-2.6 15.2-4 23.4 1.6-.5 2.2-.6 2.8-.9 24.5-13 48.9-26.1 73.3-39.3 1.5-.8 2.7-3.3 2.8-5 .3-10 .1-20 .1-30 0-3.1-.1-6.2-.1-9.8z"/>
                <path d="M342.4 305v-40.8H311v41h-40.7v31.5h40.9v41h31.4v-41.1h41v-31.5c-13.7-.1-27.1-.1-41.2-.1z"/>
            </g>
        </svg>
        <svg viewBox="-25 -25 450 450" id="icon-send">
            <g fill-rule="evenodd" clip-rule="evenodd">
                <path d="M69.403 158.904c-10.282-.003-20.566.133-30.845-.047-8.288-.146-13.347-6.852-10.847-14.188 1.274-3.74 3.92-6.24 7.96-6.942 1.092-.19 2.212-.292 3.32-.294 20.316-.017 40.632.004 60.948-.023 5.04-.006 8.904 1.798 10.96 6.634 2.71 6.37-1.215 13.66-8.074 14.542-3.54.456-7.165.29-10.752.31-7.556.038-15.112.01-22.67.008zM78.596 211.473c-7.062 0-14.125.04-21.187-.014-6.85-.052-11.38-4.22-11.5-10.46-.122-6.233 4.643-11.05 11.39-11.1 14.372-.104 28.745-.108 43.116.003 6.774.053 11.41 4.807 11.304 11.154-.102 6.074-4.83 10.366-11.566 10.404-7.185.043-14.372.013-21.558.013zM90.35 242.637c3.593.002 7.19-.087 10.78.023 6.038.185 10.576 4.803 10.595 10.632.02 5.89-4.416 10.703-10.384 10.843-7.43.17-14.87.157-22.3.014-6.185-.122-10.706-4.98-10.59-11.02.11-5.872 4.628-10.33 10.747-10.478 3.716-.09 7.435-.017 11.152-.015zM370.544 259.322c.074-17.15.156-34.303.208-51.453.07-23.44.128-46.88.178-70.32.012-6.422-5.365-14.627-15.453-14.66-21.553-.076-43.104.032-64.657.024-46.707-.017-93.416-.068-140.125-.09-15.08-.006-20.264 5.15-20.35 20.022-.122 20.765-.357 41.53-.427 62.295-.063 18.87-.14 37.74.13 56.61.13 8.902 6.626 15.214 15.31 15.346 11.015.167 22.032.018 33.05-.01 30.973-.07 61.947-.148 92.92-.216 28.008-.064 56.016-.063 84.022-.212 7.702-.04 13.51-5.185 15.123-13.813.01-.387.063-1.954.07-3.523zm-24.79-108.257c-7.633 4.79-15.253 9.602-22.882 14.396-21.956 13.795-43.886 27.63-65.906 41.324-2.695 1.676-5.863 2.598-8.482 3.727-2.328-1.326-3.86-2.12-5.31-3.038-29.286-18.55-58.563-37.112-87.838-55.678-4.305-2.73-5.578-5.792-3.292-8.846 2.63-3.51 5.684-2.23 8.752-.307 28.172 17.636 56.396 35.188 84.52 52.9 3.032 1.912 5.126 2.187 8.403.144 28.042-17.48 56.245-34.702 84.4-51.997.81-.498 1.63-.98 2.47-1.418 3.087-1.618 5.94-1.415 7.782 1.757 1.844 3.173.075 5.348-2.618 7.038z"/>
            </g>
        </svg>
        <svg viewBox="-25 -25 450 450" id="icon-thick-circle">
            <path fill-rule="evenodd" clip-rule="evenodd" d="M200.083 340.726c-78.667-.706-141.023-62.9-140.85-141.188.175-78.16 62.78-140.967 141.897-140.378 77.744.58 139.765 62.968 139.506 141.21-.257 78.085-62.638 139.567-140.553 140.356zm76.76-176.064c-7.957-7.945-16.133-16.11-24.285-24.253-23.067 23.072-46.448 46.463-70.41 70.434-12.04-12.066-23.683-23.737-34.84-34.92-8.08 8.07-16.25 16.23-24.244 24.217 19.598 19.6 39.486 39.486 59.153 59.15l94.627-94.628z"/>
        </svg>
        <svg viewBox="-25 -25 450 450" id="icon-thumbnail">
            <g fill-rule="evenodd" clip-rule="evenodd">
                <path d="M73 73h46.183v46.18H73zM176.91 73h46.182v46.18H176.91zM73 176.908h46.183v46.184H73zM176.91 176.908h46.182v46.184H176.91zM73 280.818h46.183V327H73zM176.91 280.818h46.182V327H176.91zM280.816 73h46.182v46.18h-46.182zM280.816 176.908h46.182v46.184h-46.182zM280.816 280.818h46.182V327h-46.182z"/>
            </g>
        </svg>
    </defs>
</svg>